<mxfile host="drawio-plugin" modified="2022-06-11T12:16:26.228Z" agent="5.0 (Macintosh; Intel Mac OS X 10_15_7) AppleWebKit/537.36 (KHTML, like Gecko) Chrome/97.0.4692.45 Safari/537.36" etag="YVf2ENG-6TyQYsRfxMhE" version="15.5.4" type="embed" pages="3"><diagram id="09LTFp8aRN6VFaT0IcO7" name="HttpService"><mxGraphModel dx="407" dy="633" grid="1" gridSize="10" guides="1" tooltips="1" connect="1" arrows="1" fold="1" page="1" pageScale="1" pageWidth="850" pageHeight="1100" math="0" shadow="0"><root><mxCell id="0"/><mxCell id="1" parent="0"/></root></mxGraphModel></diagram><diagram id="q34F7mzMRtBBBkYQ0vaw" name="WebSocketService"><mxGraphModel dx="407" dy="604" grid="1" gridSize="10" guides="1" tooltips="1" connect="1" arrows="1" fold="1" page="1" pageScale="1" pageWidth="850" pageHeight="1100" math="0" shadow="0"><root><mxCell id="FFiIaJp_Q_eCvNFexRdE-0"/><mxCell id="FFiIaJp_Q_eCvNFexRdE-1" parent="FFiIaJp_Q_eCvNFexRdE-0"/></root></mxGraphModel></diagram><diagram id="czO0jC9CaSMyrgv6hD4v" name="ComponentSystem"><mxGraphModel dx="477" dy="551" grid="1" gridSize="10" guides="1" tooltips="1" connect="1" arrows="1" fold="1" page="1" pageScale="1" pageWidth="850" pageHeight="1100" math="0" shadow="0"><root><mxCell id="xEb1YaVTj6uXeNeufV2g-0"/><mxCell id="xEb1YaVTj6uXeNeufV2g-1" parent="xEb1YaVTj6uXeNeufV2g-0"/><mxCell id="xEb1YaVTj6uXeNeufV2g-2" value="«interface»&lt;br&gt;&lt;b&gt;Component&lt;/b&gt;" style="html=1;" parent="xEb1YaVTj6uXeNeufV2g-1" vertex="1"><mxGeometry x="240" y="360" width="110" height="50" as="geometry"/></mxCell><mxCell id="xEb1YaVTj6uXeNeufV2g-3" value="Container" style="swimlane;fontStyle=1;align=center;verticalAlign=top;childLayout=stackLayout;horizontal=1;startSize=26;horizontalStack=0;resizeParent=1;resizeParentMax=0;resizeLast=0;collapsible=1;marginBottom=0;" parent="xEb1YaVTj6uXeNeufV2g-1" vertex="1"><mxGeometry x="400" y="360" width="160" height="100" as="geometry"/></mxCell><mxCell id="xEb1YaVTj6uXeNeufV2g-4" value="null" style="text;strokeColor=none;fillColor=none;align=left;verticalAlign=top;spacingLeft=4;spacingRight=4;overflow=hidden;rotatable=0;points=[[0,0.5],[1,0.5]];portConstraint=eastwest;" parent="xEb1YaVTj6uXeNeufV2g-3" vertex="1"><mxGeometry y="26" width="160" height="26" as="geometry"/></mxCell><mxCell id="xEb1YaVTj6uXeNeufV2g-5" value="" style="line;strokeWidth=1;fillColor=none;align=left;verticalAlign=middle;spacingTop=-1;spacingLeft=3;spacingRight=3;rotatable=0;labelPosition=right;points=[];portConstraint=eastwest;" parent="xEb1YaVTj6uXeNeufV2g-3" vertex="1"><mxGeometry y="52" width="160" height="8" as="geometry"/></mxCell><mxCell id="xEb1YaVTj6uXeNeufV2g-6" value="+ add(Component): void&#10;+ getHTML(): void" style="text;strokeColor=none;fillColor=none;align=left;verticalAlign=top;spacingLeft=4;spacingRight=4;overflow=hidden;rotatable=0;points=[[0,0.5],[1,0.5]];portConstraint=eastwest;" parent="xEb1YaVTj6uXeNeufV2g-3" vertex="1"><mxGeometry y="60" width="160" height="40" as="geometry"/></mxCell><mxCell id="xEb1YaVTj6uXeNeufV2g-7" value="Button" style="swimlane;fontStyle=1;align=center;verticalAlign=top;childLayout=stackLayout;horizontal=1;startSize=26;horizontalStack=0;resizeParent=1;resizeParentMax=0;resizeLast=0;collapsible=1;marginBottom=0;" parent="xEb1YaVTj6uXeNeufV2g-1" vertex="1"><mxGeometry x="600" y="360" width="160" height="120" as="geometry"/></mxCell><mxCell id="xEb1YaVTj6uXeNeufV2g-8" value="+ id: String" style="text;strokeColor=none;fillColor=none;align=left;verticalAlign=top;spacingLeft=4;spacingRight=4;overflow=hidden;rotatable=0;points=[[0,0.5],[1,0.5]];portConstraint=eastwest;" parent="xEb1YaVTj6uXeNeufV2g-7" vertex="1"><mxGeometry y="26" width="160" height="26" as="geometry"/></mxCell><mxCell id="xEb1YaVTj6uXeNeufV2g-9" value="" style="line;strokeWidth=1;fillColor=none;align=left;verticalAlign=middle;spacingTop=-1;spacingLeft=3;spacingRight=3;rotatable=0;labelPosition=right;points=[];portConstraint=eastwest;" parent="xEb1YaVTj6uXeNeufV2g-7" vertex="1"><mxGeometry y="52" width="160" height="8" as="geometry"/></mxCell><mxCell id="xEb1YaVTj6uXeNeufV2g-10" value="+ add(Component): void&#10;+ getHTML(): void&#10;+ onClick(): void" style="text;strokeColor=none;fillColor=none;align=left;verticalAlign=top;spacingLeft=4;spacingRight=4;overflow=hidden;rotatable=0;points=[[0,0.5],[1,0.5]];portConstraint=eastwest;" parent="xEb1YaVTj6uXeNeufV2g-7" vertex="1"><mxGeometry y="60" width="160" height="60" as="geometry"/></mxCell><mxCell id="xEb1YaVTj6uXeNeufV2g-15" value="Form" style="swimlane;fontStyle=1;align=center;verticalAlign=top;childLayout=stackLayout;horizontal=1;startSize=26;horizontalStack=0;resizeParent=1;resizeParentMax=0;resizeLast=0;collapsible=1;marginBottom=0;" parent="xEb1YaVTj6uXeNeufV2g-1" vertex="1"><mxGeometry x="1000" y="360" width="160" height="120" as="geometry"/></mxCell><mxCell id="xEb1YaVTj6uXeNeufV2g-16" value="+ id: String" style="text;strokeColor=none;fillColor=none;align=left;verticalAlign=top;spacingLeft=4;spacingRight=4;overflow=hidden;rotatable=0;points=[[0,0.5],[1,0.5]];portConstraint=eastwest;" parent="xEb1YaVTj6uXeNeufV2g-15" vertex="1"><mxGeometry y="26" width="160" height="26" as="geometry"/></mxCell><mxCell id="xEb1YaVTj6uXeNeufV2g-17" value="" style="line;strokeWidth=1;fillColor=none;align=left;verticalAlign=middle;spacingTop=-1;spacingLeft=3;spacingRight=3;rotatable=0;labelPosition=right;points=[];portConstraint=eastwest;" parent="xEb1YaVTj6uXeNeufV2g-15" vertex="1"><mxGeometry y="52" width="160" height="8" as="geometry"/></mxCell><mxCell id="xEb1YaVTj6uXeNeufV2g-18" value="+ addInput(Input): void&#10;+ getHTML(): void&#10;+ add(Component): void" style="text;strokeColor=none;fillColor=none;align=left;verticalAlign=top;spacingLeft=4;spacingRight=4;overflow=hidden;rotatable=0;points=[[0,0.5],[1,0.5]];portConstraint=eastwest;" parent="xEb1YaVTj6uXeNeufV2g-15" vertex="1"><mxGeometry y="60" width="160" height="60" as="geometry"/></mxCell><mxCell id="xEb1YaVTj6uXeNeufV2g-23" value="InlineFrame" style="swimlane;fontStyle=1;align=center;verticalAlign=top;childLayout=stackLayout;horizontal=1;startSize=26;horizontalStack=0;resizeParent=1;resizeParentMax=0;resizeLast=0;collapsible=1;marginBottom=0;" parent="xEb1YaVTj6uXeNeufV2g-1" vertex="1"><mxGeometry x="1200" y="360" width="160" height="100" as="geometry"/></mxCell><mxCell id="xEb1YaVTj6uXeNeufV2g-24" value="null" style="text;strokeColor=none;fillColor=none;align=left;verticalAlign=top;spacingLeft=4;spacingRight=4;overflow=hidden;rotatable=0;points=[[0,0.5],[1,0.5]];portConstraint=eastwest;" parent="xEb1YaVTj6uXeNeufV2g-23" vertex="1"><mxGeometry y="26" width="160" height="26" as="geometry"/></mxCell><mxCell id="xEb1YaVTj6uXeNeufV2g-25" value="" style="line;strokeWidth=1;fillColor=none;align=left;verticalAlign=middle;spacingTop=-1;spacingLeft=3;spacingRight=3;rotatable=0;labelPosition=right;points=[];portConstraint=eastwest;" parent="xEb1YaVTj6uXeNeufV2g-23" vertex="1"><mxGeometry y="52" width="160" height="8" as="geometry"/></mxCell><mxCell id="xEb1YaVTj6uXeNeufV2g-26" value="+ add(Component): void&#10;+ getHTML(): void" style="text;strokeColor=none;fillColor=none;align=left;verticalAlign=top;spacingLeft=4;spacingRight=4;overflow=hidden;rotatable=0;points=[[0,0.5],[1,0.5]];portConstraint=eastwest;" parent="xEb1YaVTj6uXeNeufV2g-23" vertex="1"><mxGeometry y="60" width="160" height="40" as="geometry"/></mxCell><mxCell id="xEb1YaVTj6uXeNeufV2g-31" value="Link" style="swimlane;fontStyle=1;align=center;verticalAlign=top;childLayout=stackLayout;horizontal=1;startSize=26;horizontalStack=0;resizeParent=1;resizeParentMax=0;resizeLast=0;collapsible=1;marginBottom=0;" parent="xEb1YaVTj6uXeNeufV2g-1" vertex="1"><mxGeometry x="1440" y="360" width="160" height="100" as="geometry"/></mxCell><mxCell id="xEb1YaVTj6uXeNeufV2g-32" value="null" style="text;strokeColor=none;fillColor=none;align=left;verticalAlign=top;spacingLeft=4;spacingRight=4;overflow=hidden;rotatable=0;points=[[0,0.5],[1,0.5]];portConstraint=eastwest;" parent="xEb1YaVTj6uXeNeufV2g-31" vertex="1"><mxGeometry y="26" width="160" height="26" as="geometry"/></mxCell><mxCell id="xEb1YaVTj6uXeNeufV2g-33" value="" style="line;strokeWidth=1;fillColor=none;align=left;verticalAlign=middle;spacingTop=-1;spacingLeft=3;spacingRight=3;rotatable=0;labelPosition=right;points=[];portConstraint=eastwest;" parent="xEb1YaVTj6uXeNeufV2g-31" vertex="1"><mxGeometry y="52" width="160" height="8" as="geometry"/></mxCell><mxCell id="xEb1YaVTj6uXeNeufV2g-54" value="+ add(Component): void&#10;+ getHTML(): void" style="text;strokeColor=none;fillColor=none;align=left;verticalAlign=top;spacingLeft=4;spacingRight=4;overflow=hidden;rotatable=0;points=[[0,0.5],[1,0.5]];portConstraint=eastwest;" parent="xEb1YaVTj6uXeNeufV2g-31" vertex="1"><mxGeometry y="60" width="160" height="40" as="geometry"/></mxCell><mxCell id="xEb1YaVTj6uXeNeufV2g-35" value="TextArea" style="swimlane;fontStyle=1;align=center;verticalAlign=top;childLayout=stackLayout;horizontal=1;startSize=26;horizontalStack=0;resizeParent=1;resizeParentMax=0;resizeLast=0;collapsible=1;marginBottom=0;" parent="xEb1YaVTj6uXeNeufV2g-1" vertex="1"><mxGeometry x="1640" y="360" width="160" height="100" as="geometry"/></mxCell><mxCell id="xEb1YaVTj6uXeNeufV2g-36" value="null" style="text;strokeColor=none;fillColor=none;align=left;verticalAlign=top;spacingLeft=4;spacingRight=4;overflow=hidden;rotatable=0;points=[[0,0.5],[1,0.5]];portConstraint=eastwest;" parent="xEb1YaVTj6uXeNeufV2g-35" vertex="1"><mxGeometry y="26" width="160" height="26" as="geometry"/></mxCell><mxCell id="xEb1YaVTj6uXeNeufV2g-37" value="" style="line;strokeWidth=1;fillColor=none;align=left;verticalAlign=middle;spacingTop=-1;spacingLeft=3;spacingRight=3;rotatable=0;labelPosition=right;points=[];portConstraint=eastwest;" parent="xEb1YaVTj6uXeNeufV2g-35" vertex="1"><mxGeometry y="52" width="160" height="8" as="geometry"/></mxCell><mxCell id="xEb1YaVTj6uXeNeufV2g-55" value="+ add(Component): void&#10;+ getHTML(): void" style="text;strokeColor=none;fillColor=none;align=left;verticalAlign=top;spacingLeft=4;spacingRight=4;overflow=hidden;rotatable=0;points=[[0,0.5],[1,0.5]];portConstraint=eastwest;" parent="xEb1YaVTj6uXeNeufV2g-35" vertex="1"><mxGeometry y="60" width="160" height="40" as="geometry"/></mxCell><mxCell id="xEb1YaVTj6uXeNeufV2g-39" value="Input" style="swimlane;fontStyle=1;align=center;verticalAlign=top;childLayout=stackLayout;horizontal=1;startSize=26;horizontalStack=0;resizeParent=1;resizeParentMax=0;resizeLast=0;collapsible=1;marginBottom=0;" parent="xEb1YaVTj6uXeNeufV2g-1" vertex="1"><mxGeometry x="1000" y="220" width="160" height="86" as="geometry"/></mxCell><mxCell id="xEb1YaVTj6uXeNeufV2g-40" value="+ field: type" style="text;strokeColor=none;fillColor=none;align=left;verticalAlign=top;spacingLeft=4;spacingRight=4;overflow=hidden;rotatable=0;points=[[0,0.5],[1,0.5]];portConstraint=eastwest;" parent="xEb1YaVTj6uXeNeufV2g-39" vertex="1"><mxGeometry y="26" width="160" height="26" as="geometry"/></mxCell><mxCell id="xEb1YaVTj6uXeNeufV2g-41" value="" style="line;strokeWidth=1;fillColor=none;align=left;verticalAlign=middle;spacingTop=-1;spacingLeft=3;spacingRight=3;rotatable=0;labelPosition=right;points=[];portConstraint=eastwest;" parent="xEb1YaVTj6uXeNeufV2g-39" vertex="1"><mxGeometry y="52" width="160" height="8" as="geometry"/></mxCell><mxCell id="xEb1YaVTj6uXeNeufV2g-42" value="+ method(type): type" style="text;strokeColor=none;fillColor=none;align=left;verticalAlign=top;spacingLeft=4;spacingRight=4;overflow=hidden;rotatable=0;points=[[0,0.5],[1,0.5]];portConstraint=eastwest;" parent="xEb1YaVTj6uXeNeufV2g-39" vertex="1"><mxGeometry y="60" width="160" height="26" as="geometry"/></mxCell><mxCell id="xEb1YaVTj6uXeNeufV2g-43" value="SubmitInput" style="swimlane;fontStyle=1;align=center;verticalAlign=top;childLayout=stackLayout;horizontal=1;startSize=26;horizontalStack=0;resizeParent=1;resizeParentMax=0;resizeLast=0;collapsible=1;marginBottom=0;" parent="xEb1YaVTj6uXeNeufV2g-1" vertex="1"><mxGeometry x="1000" y="100" width="160" height="86" as="geometry"/></mxCell><mxCell id="xEb1YaVTj6uXeNeufV2g-44" value="+ field: type" style="text;strokeColor=none;fillColor=none;align=left;verticalAlign=top;spacingLeft=4;spacingRight=4;overflow=hidden;rotatable=0;points=[[0,0.5],[1,0.5]];portConstraint=eastwest;" parent="xEb1YaVTj6uXeNeufV2g-43" vertex="1"><mxGeometry y="26" width="160" height="26" as="geometry"/></mxCell><mxCell id="xEb1YaVTj6uXeNeufV2g-45" value="" style="line;strokeWidth=1;fillColor=none;align=left;verticalAlign=middle;spacingTop=-1;spacingLeft=3;spacingRight=3;rotatable=0;labelPosition=right;points=[];portConstraint=eastwest;" parent="xEb1YaVTj6uXeNeufV2g-43" vertex="1"><mxGeometry y="52" width="160" height="8" as="geometry"/></mxCell><mxCell id="xEb1YaVTj6uXeNeufV2g-46" value="+ method(type): type" style="text;strokeColor=none;fillColor=none;align=left;verticalAlign=top;spacingLeft=4;spacingRight=4;overflow=hidden;rotatable=0;points=[[0,0.5],[1,0.5]];portConstraint=eastwest;" parent="xEb1YaVTj6uXeNeufV2g-43" vertex="1"><mxGeometry y="60" width="160" height="26" as="geometry"/></mxCell><mxCell id="xEb1YaVTj6uXeNeufV2g-49" value="Page" style="swimlane;fontStyle=1;align=center;verticalAlign=top;childLayout=stackLayout;horizontal=1;startSize=26;horizontalStack=0;resizeParent=1;resizeParentMax=0;resizeLast=0;collapsible=1;marginBottom=0;" parent="xEb1YaVTj6uXeNeufV2g-1" vertex="1"><mxGeometry x="400" y="520" width="160" height="130" as="geometry"/></mxCell><mxCell id="xEb1YaVTj6uXeNeufV2g-50" value="+ title: String" style="text;strokeColor=none;fillColor=none;align=left;verticalAlign=top;spacingLeft=4;spacingRight=4;overflow=hidden;rotatable=0;points=[[0,0.5],[1,0.5]];portConstraint=eastwest;" parent="xEb1YaVTj6uXeNeufV2g-49" vertex="1"><mxGeometry y="26" width="160" height="26" as="geometry"/></mxCell><mxCell id="xEb1YaVTj6uXeNeufV2g-51" value="" style="line;strokeWidth=1;fillColor=none;align=left;verticalAlign=middle;spacingTop=-1;spacingLeft=3;spacingRight=3;rotatable=0;labelPosition=right;points=[];portConstraint=eastwest;" parent="xEb1YaVTj6uXeNeufV2g-49" vertex="1"><mxGeometry y="52" width="160" height="8" as="geometry"/></mxCell><mxCell id="xEb1YaVTj6uXeNeufV2g-52" value="+ getHTML(): String&#10;+ setTitle(String title): void&#10;+ add(Component): void&#10;+ onInteract(String id): void" style="text;strokeColor=none;fillColor=none;align=left;verticalAlign=top;spacingLeft=4;spacingRight=4;overflow=hidden;rotatable=0;points=[[0,0.5],[1,0.5]];portConstraint=eastwest;" parent="xEb1YaVTj6uXeNeufV2g-49" vertex="1"><mxGeometry y="60" width="160" height="70" as="geometry"/></mxCell></root></mxGraphModel></diagram></mxfile>